<?xml version="1.0" encoding="utf-8"?>
<!-- Generator: Adobe Illustrator 26.0.2, SVG Export Plug-In . SVG Version: 6.00 Build 0)  -->
<svg version="1.0" id="Layer_1" xmlns="http://www.w3.org/2000/svg" xmlns:xlink="http://www.w3.org/1999/xlink" x="0px" y="0px"
	 viewBox="0 0 312 248" enable-background="new 0 0 312 248" xml:space="preserve">
<path fill="#7FA1B4" d="M307.9,123.6c-2.5,5.7-3,11.9-5.8,17.5c-10.6,21.4-27.5,34.1-51.4,37c-20.2,2.5-37.6-4-52.1-17.7
	c-11.8-11.2-18.3-25.3-19.1-41.7c-1-20.2,6-37.1,20.6-51c21.8-20.8,59.7-22.2,82.9-3.3c13,10.6,21.3,23.7,24,40.2
	c0.1,0.4,0.6,0.7,0.9,1C307.9,111.7,307.9,117.7,307.9,123.6z M243.1,167.6c29.8,0.9,53.9-23.4,53.8-52.4
	c-0.1-30.4-23.3-52.4-51.8-53.1c-31.2-0.8-54.2,23.5-54.8,52.1C189.7,143.9,215.4,168.4,243.1,167.6z"/>
<path fill="#7EA0B4" d="M74.6,244.9c-12,0.5-23-2.9-34.2-4.4c-7.3-1-14.6-2.3-22-3.3c-3.9-0.5-6.4-2.6-5.6-6.5
	c0.8-4.2,4.3-4.9,8.2-4.3c14.1,2.3,28.3,4.2,42.4,6.8c15.2,2.8,29.2-0.7,42.7-7.1c22.5-10.8,45.5-20.4,69.6-27.3
	c4.3-1.2,8.7-1.9,13-3c1.7-0.4,4.2-0.3,4-3.3c-0.2-3-2.4-3.2-4.6-3.4c-10-0.8-19.8,0.8-29.4,3.1c-10.4,2.4-20.9,4.5-31.6,5.8
	c-2,0.3-3.2,1.3-4.4,2.8c-3.3,4.1-7.7,5.9-13,6.2c-15.4,0.9-30.7,1.9-46.1,2.8c-1.7,0.1-3.4,0.3-5,0c-3-0.5-4.8-2.5-4.8-5.4
	c0-2.6,1.3-4.8,4.3-5.3c1.3-0.2,2.6-0.6,3.9-0.7c14.9-0.7,29.8-1.5,44.7-2.1c2.2-0.1,4.3-0.2,6.2-1.5c1.8-1.3,2.4-3.1,2.4-5.2
	c-0.1-2.2-1.7-3-3.6-3.6c-5.7-1.9-11.8-1.4-17.6-2.5c-11-2-22-4.1-32.9-6.5c-10.9-2.4-21.3,0.4-31.8,2.6c-6.6,1.4-13.2,3-19.7,4.7
	c-3.6,0.9-6.1-0.3-7.1-3.5c-1.1-3.6,0.7-6.3,4.3-7.1c16.2-3.6,32.1-9.3,49.1-8.3c9.3,0.6,18.2,2.8,27.2,5c8.9,2.1,18,2.4,26.9,4
	c6.8,1.2,13.4,3.1,15.7,10.9c0.7,2.1,2.1,1.4,3.6,1.2c13.4-1.7,26.5-5.2,39.8-7.6c8.3-1.5,16.7-2.4,25,0.4
	c6.5,2.2,10.4,7.2,10.1,13.1c-0.3,7.4-3.7,12.2-10.8,13.6c-30.2,6.1-58.1,18.5-85.8,31.4C97,242.3,86,245.6,74.6,244.9z"/>
<path fill="#7FA1B4" d="M53.9,114.8c-0.5-14.1,10.4-26.3,26.3-26.5c14.5-0.2,27.3,11.8,26.5,27.8c-0.7,13.8-12.3,25.4-26.6,25.3
	C65.4,141.3,53.8,129.6,53.9,114.8z M95.8,114.8c0-8.8-6.5-15.2-15.5-15.2c-9,0-15.6,6.3-15.6,15c0,8.5,6.9,15.8,15.2,15.9
	C88.6,130.6,95.8,123.5,95.8,114.8z"/>
<path fill="#7FA1B4" d="M161.3,144.4c-1.8,0.2-3.2-0.7-4.6-1.6c-11-7.5-22.1-15.1-33.1-22.6c-5-3.5-5.2-6.9-0.2-10.4
	c11.4-7.9,22.9-15.6,34.4-23.3c3-2,5.9-2.3,8.2,1c2.4,3.4,0.8,6.1-2,8c-7.7,5.3-15.6,10.4-23.4,15.7c-5.4,3.7-5.4,3.8,0.1,7.5
	c7.7,5.2,15.4,10.3,23,15.4c2.3,1.6,4.2,3.7,3.2,6.6C166.2,143.1,164.3,144.8,161.3,144.4z"/>
</svg>
