<?xml version="1.0" encoding="utf-8"?>
<!-- Generator: Adobe Illustrator 26.0.2, SVG Export Plug-In . SVG Version: 6.00 Build 0)  -->
<svg version="1.0" xmlns="http://www.w3.org/2000/svg" xmlns:xlink="http://www.w3.org/1999/xlink" x="0px" y="0px"
	 viewBox="0 0 312 248" enable-background="new 0 0 312 248" xml:space="preserve">
<g id="Layer_1" display="none">
	<path display="inline" fill="#7FA1B4" d="M302.1,141.2c-10.6,21.4-27.5,34.1-51.4,37c-20.2,2.5-37.6-4-52.1-17.7
		c-11.8-11.2-18.3-25.3-19.1-41.7c-1-20.2,6-37.1,20.6-51c21.8-20.8,59.7-22.2,82.9-3.3c10.5,8.6,17.9,18.8,21.8,31.2
		c0.9,2.9,3.1,9.2,3.1,19.4S304.9,135.6,302.1,141.2z M243.1,167.6c29.8,0.9,53.9-23.4,53.8-52.4c-0.1-30.4-23.3-52.4-51.8-53.1
		c-31.2-0.8-54.2,23.5-54.8,52.1C189.7,143.9,215.4,168.4,243.1,167.6z"/>
	<path display="inline" fill="#7EA0B4" d="M74.6,244.9c-12,0.5-23-2.9-34.2-4.4c-7.3-1-14.6-2.3-22-3.3c-3.9-0.5-6.4-2.6-5.6-6.5
		c0.8-4.2,4.3-4.9,8.2-4.3c14.1,2.3,28.3,4.2,42.4,6.8c15.2,2.8,29.2-0.7,42.7-7.1c22.5-10.8,45.5-20.4,69.6-27.3
		c4.3-1.2,8.7-1.9,13-3c1.7-0.4,4.2-0.3,4-3.3c-0.2-3-2.4-3.2-4.6-3.4c-10-0.8-19.8,0.8-29.4,3.1c-10.4,2.4-20.9,4.5-31.6,5.8
		c-2,0.3-3.2,1.3-4.4,2.8c-3.3,4.1-7.7,5.9-13,6.2c-15.4,0.9-30.7,1.9-46.1,2.8c-1.7,0.1-3.4,0.3-5,0c-3-0.5-4.8-2.5-4.8-5.4
		c0-2.6,1.3-4.8,4.3-5.3c1.3-0.2,2.6-0.6,3.9-0.7c14.9-0.7,29.8-1.5,44.7-2.1c2.2-0.1,4.3-0.2,6.2-1.5c1.8-1.3,2.4-3.1,2.4-5.2
		c-0.1-2.2-1.7-3-3.6-3.6c-5.7-1.9-11.8-1.4-17.6-2.5c-11-2-22-4.1-32.9-6.5c-10.9-2.4-21.3,0.4-31.8,2.6c-6.6,1.4-13.2,3-19.7,4.7
		c-3.6,0.9-6.1-0.3-7.1-3.5c-1.1-3.6,0.7-6.3,4.3-7.1c16.2-3.6,32.1-9.3,49.1-8.3c9.3,0.6,18.2,2.8,27.2,5c8.9,2.1,18,2.4,26.9,4
		c6.8,1.2,13.4,3.1,15.7,10.9c0.7,2.1,2.1,1.4,3.6,1.2c13.4-1.7,26.5-5.2,39.8-7.6c8.3-1.5,16.7-2.4,25,0.4
		c6.5,2.2,10.4,7.2,10.1,13.1c-0.3,7.4-3.7,12.2-10.8,13.6c-30.2,6.1-58.1,18.5-85.8,31.4C97,242.3,86,245.6,74.6,244.9z"/>
	<path display="inline" fill="#7FA1B4" d="M53.9,114.8c-0.5-14.1,10.4-26.3,26.3-26.5c14.5-0.2,27.3,11.8,26.5,27.8
		c-0.7,13.8-12.3,25.4-26.6,25.3C65.4,141.3,53.8,129.6,53.9,114.8z M95.8,114.8c0-8.8-6.5-15.2-15.5-15.2c-9,0-15.6,6.3-15.6,15
		c0,8.5,6.9,15.8,15.2,15.9C88.6,130.6,95.8,123.5,95.8,114.8z"/>
	<path display="inline" fill="#7FA1B4" d="M161.3,144.4c-1.8,0.2-3.2-0.7-4.6-1.6c-11-7.5-22.1-15.1-33.1-22.6
		c-5-3.5-5.2-6.9-0.2-10.4c11.4-7.9,22.9-15.6,34.4-23.3c3-2,5.9-2.3,8.2,1c2.4,3.4,0.8,6.1-2,8c-7.7,5.3-15.6,10.4-23.4,15.7
		c-5.4,3.7-5.4,3.8,0.1,7.5c7.7,5.2,15.4,10.3,23,15.4c2.3,1.6,4.2,3.7,3.2,6.6C166.2,143.1,164.3,144.8,161.3,144.4z"/>
</g>
<g id="Layer_2" display="none">
	<path display="inline" fill="#7EA0B4" d="M219.4,243.4c-7.8-7.6-15.7-15.2-23.3-23c-3.6-3.8-7.5-5.3-12.7-5.2
		c-17.1,0.2-34.2,0.1-51.2,0.1c-14,0-19.6-5.3-20.3-19.3c-0.1-1.8-0.1-3.6-0.1-5.5c0-15.9-0.3-31.9,0.1-47.8
		c0.2-6.6-3.1-10.3-8.5-14.2c0.9,1.7,1.2,3.6,1.2,8.9c0,20.2,0.2,40.5,0,60.7c-0.1,10.7-6.8,17-17.3,17c-20.2,0.1-40.5,0.1-60.7,0
		c-11.1,0-17.3-6.3-17.3-17.3c0-19.7,0-39.5,0-59.2c0-13,5.9-18.8,18.9-18.9c10.6,0,21.2-0.1,31.8,0c3.7,0,7.7-0.1,7.7-0.1
		s-2.7-3.1-2.8-7.2c-0.1-5.2-0.1-12.2-0.1-16.7c0-4.7-0.3-7-0.3-7S33.6,57.9,20.3,44.8c-5.7-5.6-14.8-14.2-16-15.4S0.6,25,3.2,22.2
		S9,18,12.6,20.6c1.3,1,2.5,2.2,3.7,3.3c14.8,14.8,29.6,29.6,44.4,44.3c0.9,0.9,3.9,4,3.9,4s0.1-4.5,0.2-5.7
		c0.1-6-0.1-11.9,0.1-17.9c0.3-9,4.8-13.9,13.6-15.7c5.8-1.2,11.6-0.6,17.4-0.7c15.3-0.1,30.5-0.2,45.8,0.1
		c11.1,0.2,17.8,6.1,17.9,16c0.2,22.1,0.1,44.1-0.2,66.2c-0.1,3.9-1.4,4.7-2.9,5.4c8.1-0.2,24-0.1,32.1,0
		c12.7,0.1,18.8,5.9,18.8,18.5c0.1,19.6,0,39.2,0,58.7c0,3.5-0.1,7.1-2.1,10.1c-1.7,1.9-3,2.5-3.5,2.8c6.4,6.3,17.3,16.7,23.6,23.1
		c4,4.1,4,7.2,1.7,10.1C224.7,245.9,220.6,244.6,219.4,243.4z M91.8,168c0-9.4,0-18.9,0-28.3c0-6.4-1.2-7.7-7.5-7.7
		c-18.6-0.1-37.1-0.1-55.7,0c-6.1,0-7.3,1.3-7.4,7.3c0,18.9,0,37.8,0,56.7c0,6.2,1.1,7.3,7.3,7.3c18.7,0.1,37.5,0.1,56.2,0
		c6.1,0,7.1-1.1,7.1-7.4C91.9,186.5,91.8,177.3,91.8,168z M147.5,80.7c0-9.8-0.1-19.6,0-29.3c0.1-4.3-1.5-6.4-6.1-6.3
		c-19.6,0.1-39.1,0.1-58.7,0c-4.3,0-5.9,1.8-5.9,6c0.1,9.6,0.1,19.2,0,28.8c0,3,0,4.6,0,4.6s19.8,19.5,28,27.9
		c2.3,2.3,4.7,3.3,7.9,3.3c9.3-0.1,18.6,0,27.8-0.1c5.9,0,6.7-0.7,6.7-6.6C147.5,99.6,147.5,90.2,147.5,80.7z M195.3,167.6
		c0-9.4,0-18.9,0-28.3c0-6-1.2-7.2-7.4-7.3c-5.8-0.1-11.6,0-17.4,0c-12.8,0-25.5,0-38.3,0c-1.7,0-7.6-0.1-7.6-0.1s4.1,4.2,5.2,5.4
		c20,20.1,61.4,61.8,63.1,62.9c1.9-0.9,2.4-3.5,2.4-5.2C195.3,185.8,195.3,176.7,195.3,167.6z M151.9,203.4c7.1,0,14.2,0,21.4,0
		c1.2,0,5.6,0,5.6,0s-3.2-3.1-4-3.9c-15.5-15.5-30.9-30.9-46.4-46.4c-0.8-0.8-4-4.6-4-4.6s0.1,5.2,0.1,6.4c0,13.9,0,27.8,0,41.8
		c0,4.9,2.2,6.9,7,6.8C138.3,203.3,145.1,203.4,151.9,203.4z M84.4,115.7c2.2,0,6.5,0,6.5,0s-2.1-2.2-2.5-2.6
		c-3-3.1-11.5-11.6-11.5-11.6s0.2,1.4,0.2,2.9C76.9,113.4,78,115.6,84.4,115.7z"/>
</g>
<g id="Layer_3" display="none">
	<g display="inline">
		<path fill="#7EA0B4" d="M222.5,167.8c-0.1-1.6-1.2-2.9-2.7-3.4l-112-36.7c-1.4-0.5-3-0.1-4.1,1c-1.1,1.1-1.4,2.7-1,4.1l37,111.1
			c0.5,1.5,1.9,2.6,3.5,2.7c0.1,0,0.2,0,0.3,0c1.5,0,2.8-0.8,3.5-2.1l25.2-46.9l48.1-25.9C221.8,170.9,222.6,169.4,222.5,167.8z
			 M167.5,191c-0.7,0.4-1.3,0.9-1.6,1.6l-21.4,39.8l-31.6-94.8l95.6,31.4L167.5,191z"/>
		<path fill="#7EA0B4" d="M95.3,193.2C95.2,193.2,95.2,193.2,95.3,193.2l-43.9,0.2v-16.7c0-2.5-2-4.5-4.5-4.5H30.7V76.9h16.1
			c2.5,0,4.5-2,4.5-4.5V55.6h96.9v16.9c0,2.5,2,4.5,4.5,4.5h16.1v42.3c0,2.2,1.8,4,4,4s4-1.8,4-4V76.9H193c2.5,0,4.5-2,4.5-4.5V31.1
			c0-2.5-2-4.5-4.5-4.5h-40.2c-2.5,0-4.5,2-4.5,4.5v16.5H51.3V31.1c0-2.5-2-4.5-4.5-4.5H6.6c-2.5,0-4.5,2-4.5,4.5v41.4
			c0,2.5,2,4.5,4.5,4.5h16.1v95.2H6.6c-2.5,0-4.5,2-4.5,4.5V218c0,2.5,2,4.5,4.5,4.5h40.2c2.5,0,4.5-2,4.5-4.5v-16.7l43.9-0.2
			c2.2,0,4-1.8,4-4C99.2,195,97.5,193.2,95.3,193.2z M158,33.7h29.6c1.5,0,2.7,1.2,2.7,2.7v30.2c0,1.5-1.2,2.7-2.7,2.7H158
			c-1.5,0-2.7-1.2-2.7-2.7V36.4C155.3,34.9,156.5,33.7,158,33.7z M9.2,66.7V36.4c0-1.5,1.2-2.7,2.7-2.7h29.6c1.5,0,2.7,1.2,2.7,2.7
			v30.2c0,1.5-1.2,2.7-2.7,2.7H11.9C10.4,69.4,9.2,68.2,9.2,66.7z M41.5,215H11.9c-1.5,0-2.7-1.2-2.7-2.7v-30.2
			c0-1.5,1.2-2.7,2.7-2.7h29.6c1.5,0,2.7,1.2,2.7,2.7v30.2C44.2,213.8,43,215,41.5,215z"/>
	</g>
</g>
<g id="Layer_4">
	<path fill="#7A9EB2" d="M107.8,245.3c-10.8,0-21.5-0.4-32.3,0.1c-11.8,0.5-20-4.7-26.2-14.3c-14.8-22.8-29.8-45.4-44.9-68
		c-3.1-4.6-3.2-8.5-0.1-13.1c6.9-9.9,14.5-12.4,25.8-8c6.9,2.6,13.9,4.9,20.8,7.6c2.3,0.9,3.2,0.8,3.5-1.9c0.8-8.7,1.9-17.3,2.9-26
		c0.3-2.5-1.4-3.3-3.2-4.4c-19.2-11.6-29.5-28.9-29.3-51c0.2-28.8,21.4-52.7,49.4-57c30.6-4.7,60.4,17.7,65,48.5
		c4,27.1-7.8,46.8-30.3,60.9c-1.4,0.9-3.7,1-3.3,3.6c0.4,2.6,2.6,1.9,4.3,2.4c18.4,5,36.8,9.7,55,15.3c12.8,4,19.9,17.8,16.9,30.8
		c-4.2,18.4-8.4,36.8-12.7,55.2c-2.5,10.9-13.3,19.3-24.6,19.3C132.3,245.3,120.1,245.3,107.8,245.3z M108.2,231.3
		c11.8,0,23.5,0,35.3,0c7.2,0,11.1-3.1,12.7-10c4-17.5,8-35,11.9-52.5c2-8.9-1.3-14-10.3-16.5c-3.8-1.1-7.6-2.3-11.4-3.2
		c-15.5-3.6-30.2-10.5-46.5-10.8c-3.9-0.1-6.8-2.6-7.2-6.9c-0.4-4.9-0.7-9.9-1-14.8c-1-16.5-2-33-2.8-49.5c-0.2-4.2-2-7.1-6-6.9
		c-4.2,0.1-6.1,3.4-6.4,7.5c-0.6,8.4-1.3,16.8-2.1,25.2c-2.2,22-4.6,44-6.8,65.9c-0.8,7.5-4.6,10.1-11.7,7.4
		c-10.2-3.8-20.4-7.7-30.5-11.5c-2.5-1-5.1-2-7.3,0.5c-2.2,2.6,0.7,4.2,1.8,5.8c14.2,21.7,28.4,43.3,42.7,65c2.4,3.7,5.7,5.3,10,5.3
		C84.3,231.3,96.3,231.3,108.2,231.3z M83,23.2c-2.8,0-5.7-0.5-8.4,0.1c-18,4.1-30,15.1-34.5,33.1c-4.4,17.8,1.3,32.9,15.1,44.8
		c0.8,0.7,1.5,2.1,2.9,1.3c1-0.6,0.5-1.8,0.6-2.7c1.3-12.3,2.5-24.6,4-36.9C64.2,50.5,74.9,45,83.4,45.4
		c11.4,0.5,19.5,9.5,19.8,20.8c0.4,11.7,1.3,23.5,1.9,35.2c0.1,2.7,1,2.8,3,1.3c3.6-2.7,6.8-5.7,9.4-9.4c10.5-14.9,12-30.7,3.7-46.8
		C113.5,31.2,100.4,23.2,83,23.2z"/>
</g>
</svg>
