<?xml version="1.0" encoding="utf-8"?>
<!-- Generator: Adobe Illustrator 26.0.2, SVG Export Plug-In . SVG Version: 6.00 Build 0)  -->
<svg version="1.0" id="Layer_1" xmlns="http://www.w3.org/2000/svg" xmlns:xlink="http://www.w3.org/1999/xlink" x="0px" y="0px"
	 viewBox="0 0 533.1 51.6" enable-background="new 0 0 533.1 51.6" xml:space="preserve">
<path fill="#181818" d="M56.5,40.9C41.6,29.9,27,18.9,12,7.7c0,13.1,0,26,0,38.9c-2.5,0-4.9,0-7.3,0c0-14,0-28,0-42.2
	c0.4,0,0.8,0,1.1,0c4.3,0,8.6,0,12.9,0c0.9,0,1.6,0.2,2.3,0.8c9,6.9,18.1,13.9,27.1,20.8c0.3,0.2,0.6,0.4,1.1,0.8
	c0-7.5,0-14.9,0-22.3c2.5,0,4.9,0,7.3,0C56.5,16.6,56.5,28.6,56.5,40.9z"/>
<path fill="#181818" d="M20.8,25.7c0,7.1,0,13.9,0,20.8c-2.4,0-4.8,0-7.3,0c0-11.9,0-23.8,0-35.9C28.4,21.7,43.1,32.7,58,43.9
	c0-13.3,0-26.3,0-39.4c2.5,0,4.8,0,7.3,0c0,14,0,28,0,42.1c-0.3,0-0.6,0.1-0.9,0.1c-4.7,0-9.5,0-14.2,0c-0.6,0-1.2-0.2-1.7-0.6
	C39.6,39.6,30.7,33,21.8,26.4C21.5,26.2,21.2,26,20.8,25.7z"/>
<path fill="#181818" d="M153.8,30.3c2.2,0,4.4,0,6.7,0c0,3-0.7,5.8-2.4,8.3c-2.1,3.1-5.2,5-8.7,6.2c-3.7,1.3-7.5,2-11.4,2.3
	c-7.2,0.5-14.4,0.4-21.6-1.2c-2.9-0.7-5.6-1.6-8.2-3.2c-3.8-2.2-6.4-5.4-7.7-9.6c-1.6-5-1.7-10.1-0.1-15.1c2-5.9,6.3-9.6,12-12
	c5.7-2.2,11.6-2.9,17.6-3c6.9-0.1,13.6,0.7,20,3.5c3.5,1.5,6.6,3.6,8.6,7.1c1,1.8,1.6,3.8,1.5,6c-2.4,0-4.6,0-7,0
	c-0.3-4.1-2.5-6.9-5.9-8.8c-1.2-0.7-2.5-1.3-3.9-1.7c-8-2.3-16.1-2.5-24.1-0.3c-8.3,2.3-12.3,8-12.2,16.7c0.1,3.4,0.6,6.6,2.4,9.6
	c2.2,3.6,5.6,5.7,9.6,6.7c8.7,2.1,17.3,2.3,25.9-0.5c3.7-1.2,6.7-3.4,8.1-7.3C153.4,32.7,153.5,31.5,153.8,30.3z"/>
<path fill="#181818" d="M151.6,19.6c-2.7,0-5.3,0-8,0c-0.9-3.6-3.7-5-7-5.6c-4.4-0.8-8.8-0.7-13.2,0.6c-5,1.6-7.7,5.3-7.5,10.5
	c0,1.2,0.2,2.5,0.5,3.6c1.1,4.4,4.3,6.4,8.5,7.3c4.4,0.9,8.8,0.8,13.2-0.2c0.9-0.2,1.8-0.6,2.6-1c1.7-0.9,3-2.1,3.5-4.1
	c0.1-0.2,0.4-0.6,0.7-0.6c2.4,0,4.7,0,7.2,0c0.1,2.2-0.6,4.1-1.9,5.8c-2,2.5-4.8,3.7-7.8,4.5c-7.7,1.8-15.4,1.8-23-0.2
	c-5-1.3-8.8-4.2-10.2-9.5c-0.9-3.6-1-7.2-0.1-10.7c1.2-4.9,4.5-8,9.2-9.4c8.9-2.7,17.8-2.5,26.5,0.6c1.9,0.7,3.6,1.9,4.9,3.5
	C151,16,151.6,17.6,151.6,19.6z"/>
<path fill="#181818" d="M221.9,41.6c0,1.6,0,3.1,0,4.7c-16,0-32,0-48.2,0c0-5.3,0-10.6,0-16c-3.4,0-6.7,0-10.3,0
	c0.8-1.5,1.4-2.9,2.1-4.3c0.1-0.1,0.4-0.2,0.7-0.2c5.1,0,10.2,0,15.3,0c0.1,0,0.3,0.1,0.6,0.1c0,5.2,0,10.4,0,15.7
	C195.4,41.6,208.5,41.6,221.9,41.6z"/>
<path fill="#181818" d="M182.1,8.9c0,2.5,0,4.7,0,7c0,2.5,0,5.1,0,7.6c0,0.6-0.1,0.9-0.8,0.9c-4.8,0-9.6,0-14.4,0
	c-0.1,0-0.2,0-0.5-0.1c0.7-1.5,1.4-2.9,2.2-4.4c0.1-0.2,0.6-0.3,0.9-0.3c1.4,0,2.7,0,4.2,0c0-5.2,0-10.3,0-15.4
	c16.1,0,32.1,0,48.2,0c0,1.6,0,3.1,0,4.7C208.6,8.9,195.4,8.9,182.1,8.9z"/>
<path fill="#181818" d="M189.9,14.8c0,1.7,0,3.2,0,4.8c6.3,0,12.5,0,18.8,0c0,1.6,0,3.1,0,4.7c-8.3,0-16.7,0-25.1,0
	c0-4.6,0-9.2,0-13.9c12.7,0,25.4,0,38.2,0c0,1.4,0,2.8,0,4.3C211.2,14.8,200.6,14.8,189.9,14.8z"/>
<path fill="#181818" d="M208.7,25.9c0,1.4,0,2.8,0,4.3c-6.3,0-12.5,0-18.8,0c0,1.9,0,3.5,0,5.4c10.6,0,21.2,0,31.9,0
	c0,1.6,0,3,0,4.5c-12.7,0-25.5,0-38.3,0c0-4.8,0-9.4,0-14.2C192,25.9,200.3,25.9,208.7,25.9z"/>
<path fill="#181818" d="M75.1,46.4c0-14.2,0-28.1,0-42.2c2.4,0,4.8,0,7.3,0c0,0.4,0.1,0.7,0.1,1.1c0,13.3,0,26.6,0,39.9
	c0,1-0.3,1.3-1.3,1.2C79.2,46.3,77.2,46.4,75.1,46.4z"/>
<path fill="#181818" d="M91.2,46.3c-2.4,0-4.8,0-7.2,0c0-14.1,0-28,0-42.1c2.4,0,4.8,0,7.2,0C91.2,18.2,91.2,32.2,91.2,46.3z"/>
<g>
	<path fill="#181818" d="M266.4,16.5c-1-1-1.4-2.2-1.4-3.7c0-1.5,0.5-2.7,1.4-3.7c1-1,2.2-1.5,3.6-1.5c1.4,0,2.6,0.5,3.6,1.5
		c1,1,1.4,2.2,1.4,3.7c0,1.5-0.5,2.7-1.4,3.7c-1,1-2.2,1.5-3.6,1.5C268.6,18,267.4,17.5,266.4,16.5z M267.2,9.9
		c-0.7,0.8-1.1,1.7-1.1,2.9c0,1.2,0.4,2.1,1.1,2.9c0.7,0.8,1.7,1.2,2.8,1.2c1.1,0,2-0.4,2.8-1.2c0.7-0.8,1.1-1.7,1.1-2.9
		c0-1.2-0.4-2.1-1.1-2.9c-0.7-0.8-1.7-1.2-2.8-1.2C268.9,8.8,268,9.1,267.2,9.9z"/>
	<path fill="#181818" d="M276.4,8.9V7.9h1.4v-4h4.5V5H279v2.9h4.9v-4h4.5V5h-3.3v2.9h2.7v1.1h-2.7v8.8h-1.2V8.9H279v8.8h-1.2V8.9
		H276.4z"/>
	<path fill="#181818" d="M289.5,5.5c-0.2-0.2-0.3-0.4-0.3-0.6c0-0.3,0.1-0.5,0.3-0.6c0.2-0.2,0.4-0.3,0.6-0.3c0.3,0,0.5,0.1,0.6,0.3
		s0.3,0.4,0.3,0.6c0,0.3-0.1,0.5-0.3,0.6c-0.2,0.2-0.4,0.3-0.6,0.3C289.9,5.8,289.7,5.7,289.5,5.5z M289.5,17.8V7.9h1.2v9.9H289.5z"
		/>
	<path fill="#181818" d="M294.6,16.5c-0.9-1-1.4-2.2-1.4-3.7c0-1.5,0.5-2.7,1.4-3.7c0.9-1,2.1-1.5,3.4-1.5c1.6,0,2.8,0.6,3.8,1.7
		c0.4,0.5,0.7,1.1,0.9,1.7h-1.2c-0.2-0.5-0.4-0.9-0.7-1.2c-0.7-0.8-1.6-1.2-2.7-1.2c-1,0-1.9,0.4-2.6,1.2s-1.1,1.7-1.1,2.9
		c0,1.2,0.4,2.1,1.1,2.9c0.7,0.8,1.6,1.2,2.6,1.2c1.2,0,2.1-0.4,2.8-1.3c0.3-0.4,0.6-0.8,0.8-1.3h1.2c-0.2,0.7-0.5,1.3-0.9,1.8
		c-1,1.2-2.3,1.8-3.8,1.8C296.7,18,295.6,17.5,294.6,16.5z"/>
	<path fill="#181818" d="M305.2,5.5c-0.2-0.2-0.3-0.4-0.3-0.6c0-0.3,0.1-0.5,0.3-0.6c0.2-0.2,0.4-0.3,0.6-0.3c0.3,0,0.5,0.1,0.6,0.3
		s0.3,0.4,0.3,0.6c0,0.3-0.1,0.5-0.3,0.6c-0.2,0.2-0.4,0.3-0.6,0.3C305.6,5.8,305.3,5.7,305.2,5.5z M305.2,17.8V7.9h1.2v9.9H305.2z"
		/>
	<path fill="#181818" d="M310.3,16.5c-0.9-1-1.4-2.2-1.4-3.7c0-1.5,0.5-2.7,1.4-3.7c0.9-1,2-1.5,3.4-1.5c0.9,0,1.7,0.2,2.4,0.7
		c0.6,0.5,1.1,1,1.4,1.5h0v-2h1.2v9.9h-1.2v-2h0c-0.3,0.5-0.7,1-1.4,1.5c-0.6,0.5-1.4,0.7-2.4,0.7C312.3,18,311.2,17.5,310.3,16.5z
		 M311.2,9.9c-0.7,0.8-1.1,1.7-1.1,2.9c0,1.2,0.4,2.1,1.1,2.9c0.7,0.8,1.6,1.2,2.6,1.2c1,0,1.8-0.4,2.6-1.2c0.7-0.8,1.1-1.7,1.1-2.9
		c0-1.2-0.4-2.1-1.1-2.9c-0.7-0.8-1.6-1.2-2.6-1.2C312.7,8.8,311.9,9.1,311.2,9.9z"/>
	<path fill="#181818" d="M321.8,17.8V3.9h1.2v12.8h2.3v1.1H321.8z"/>
	<path fill="#181818" d="M332.7,17.8V7.9h1.2v1.7h0c0.2-0.4,0.5-0.7,0.8-0.9c0.7-0.6,1.6-1,2.6-1c1,0,1.8,0.4,2.5,1.1
		c0.3,0.3,0.5,0.7,0.7,1.1h0.1c0.2-0.4,0.4-0.7,0.8-1.1c0.8-0.7,1.7-1.1,2.9-1.1c1,0,1.9,0.4,2.5,1.2c0.7,0.8,1,1.8,1,3.1v5.9h-1.2
		v-5.9c0-1-0.2-1.8-0.7-2.4c-0.5-0.5-1.1-0.8-1.9-0.8c-0.8,0-1.6,0.3-2.2,1c-0.6,0.6-1,1.4-1,2.3v5.8h-1.2v-5.9c0-1-0.2-1.8-0.7-2.4
		c-0.5-0.5-1.1-0.8-1.9-0.8c-0.8,0-1.6,0.3-2.2,1s-1,1.4-1,2.3v5.8H332.7z"/>
	<path fill="#181818" d="M351.5,16.5c-1-1-1.4-2.2-1.4-3.7c0-1.5,0.5-2.7,1.4-3.7c1-1,2.1-1.5,3.5-1.5c1.4,0,2.6,0.5,3.5,1.5
		s1.4,2.2,1.4,3.6v0.5h-8.7c0.1,1,0.4,1.9,1.2,2.6c0.7,0.7,1.6,1.1,2.6,1.1c1.1,0,2.1-0.4,2.8-1.1c0.3-0.3,0.6-0.7,0.8-1.1h1.2
		c-0.2,0.6-0.6,1.2-1,1.6c-1,1.1-2.2,1.6-3.8,1.6C353.6,18,352.4,17.5,351.5,16.5z M351.2,12.1h7.4c-0.1-1-0.5-1.8-1.2-2.4
		c-0.7-0.6-1.5-1-2.5-1s-1.8,0.3-2.5,1C351.8,10.3,351.4,11.1,351.2,12.1z"/>
	<path fill="#181818" d="M363.1,16.5c-0.9-1-1.4-2.2-1.4-3.7c0-1.5,0.5-2.7,1.4-3.7c0.9-1,2-1.5,3.4-1.5c0.9,0,1.7,0.2,2.4,0.7
		c0.6,0.5,1.1,1,1.4,1.5h0v-6h1.2v13.9h-1.2v-2h0c-0.3,0.5-0.7,1-1.4,1.5c-0.6,0.5-1.4,0.7-2.4,0.7C365.2,18,364.1,17.5,363.1,16.5z
		 M364,9.9c-0.7,0.8-1.1,1.7-1.1,2.9c0,1.2,0.4,2.1,1.1,2.9c0.7,0.8,1.6,1.2,2.6,1.2c1,0,1.8-0.4,2.6-1.2c0.7-0.8,1.1-1.7,1.1-2.9
		c0-1.2-0.4-2.1-1.1-2.9c-0.7-0.8-1.6-1.2-2.6-1.2C365.6,8.8,364.7,9.1,364,9.9z"/>
	<path fill="#181818" d="M374.6,5.5c-0.2-0.2-0.3-0.4-0.3-0.6c0-0.3,0.1-0.5,0.3-0.6c0.2-0.2,0.4-0.3,0.6-0.3c0.3,0,0.5,0.1,0.6,0.3
		s0.3,0.4,0.3,0.6c0,0.3-0.1,0.5-0.3,0.6c-0.2,0.2-0.4,0.3-0.6,0.3C375,5.8,374.8,5.7,374.6,5.5z M374.6,17.8V7.9h1.2v9.9H374.6z"/>
	<path fill="#181818" d="M379.7,16.5c-0.9-1-1.4-2.2-1.4-3.7c0-1.5,0.5-2.7,1.4-3.7c0.9-1,2.1-1.5,3.4-1.5c1.6,0,2.8,0.6,3.8,1.7
		c0.4,0.5,0.7,1.1,0.9,1.7h-1.2c-0.2-0.5-0.4-0.9-0.7-1.2c-0.7-0.8-1.6-1.2-2.7-1.2c-1,0-1.9,0.4-2.6,1.2s-1.1,1.7-1.1,2.9
		c0,1.2,0.4,2.1,1.1,2.9c0.7,0.8,1.6,1.2,2.6,1.2c1.2,0,2.1-0.4,2.8-1.3c0.3-0.4,0.6-0.8,0.8-1.3h1.2c-0.2,0.7-0.5,1.3-0.9,1.8
		c-1,1.2-2.3,1.8-3.8,1.8C381.8,18,380.7,17.5,379.7,16.5z"/>
	<path fill="#181818" d="M391,16.5c-0.9-1-1.4-2.2-1.4-3.7c0-1.5,0.5-2.7,1.4-3.7c0.9-1,2-1.5,3.4-1.5c0.9,0,1.7,0.2,2.4,0.7
		c0.6,0.5,1.1,1,1.4,1.5h0v-2h1.2v9.9h-1.2v-2h0c-0.3,0.5-0.7,1-1.4,1.5c-0.6,0.5-1.4,0.7-2.4,0.7C393.1,18,391.9,17.5,391,16.5z
		 M391.9,9.9c-0.7,0.8-1.1,1.7-1.1,2.9c0,1.2,0.4,2.1,1.1,2.9c0.7,0.8,1.6,1.2,2.6,1.2c1,0,1.8-0.4,2.6-1.2c0.7-0.8,1.1-1.7,1.1-2.9
		c0-1.2-0.4-2.1-1.1-2.9c-0.7-0.8-1.6-1.2-2.6-1.2C393.5,8.8,392.6,9.1,391.9,9.9z"/>
	<path fill="#181818" d="M402.5,17.8V3.9h1.2v12.8h2.3v1.1H402.5z"/>
	<path fill="#181818" d="M412.6,14.8h1.3c0.2,0.4,0.4,0.8,0.7,1.1c0.6,0.7,1.5,1,2.6,1c0.9,0,1.6-0.2,2-0.5c0.4-0.3,0.7-0.8,0.7-1.3
		c0-0.3-0.1-0.5-0.3-0.8c-0.2-0.2-0.4-0.4-0.8-0.5c-0.4-0.1-0.7-0.3-1-0.3c-0.3-0.1-0.7-0.2-1.3-0.3c-0.6-0.1-1.2-0.3-1.7-0.5
		s-0.9-0.5-1.2-0.9c-0.3-0.4-0.5-0.9-0.5-1.5c0-0.7,0.3-1.4,1-1.9s1.6-0.8,2.7-0.8c1.4,0,2.6,0.5,3.4,1.4c0.4,0.4,0.6,0.9,0.8,1.4
		h-1.3c-0.1-0.4-0.3-0.7-0.6-0.9c-0.6-0.6-1.4-0.9-2.3-0.9c-0.8,0-1.4,0.2-1.8,0.5c-0.4,0.3-0.6,0.7-0.6,1.1c0,0.2,0.1,0.5,0.2,0.6
		c0.1,0.2,0.3,0.4,0.5,0.5c0.2,0.1,0.4,0.2,0.8,0.3c0.3,0.1,0.6,0.2,0.9,0.2s0.6,0.1,1,0.2c0.5,0.1,0.9,0.2,1.3,0.3
		c0.4,0.1,0.7,0.3,1.1,0.5c0.3,0.2,0.6,0.5,0.8,0.8c0.2,0.3,0.3,0.7,0.3,1.2c0,0.8-0.3,1.5-1,2.1c-0.7,0.5-1.6,0.8-2.9,0.8
		c-1.6,0-2.8-0.5-3.7-1.6C413.1,15.9,412.8,15.4,412.6,14.8z"/>
	<path fill="#181818" d="M423.5,13.7V7.9h1.2v5.9c0,1,0.2,1.8,0.7,2.4c0.5,0.5,1.2,0.8,2,0.8c1,0,1.8-0.3,2.4-1c0.6-0.7,1-1.5,1-2.6
		V7.9h1.2v9.9h-1.2v-1.7h0c-0.3,0.5-0.7,0.9-1.3,1.3s-1.3,0.6-2.3,0.6c-1.1,0-2-0.4-2.7-1.2S423.5,15,423.5,13.7z"/>
	<path fill="#181818" d="M435.3,21.5V7.9h1.2v2h0c0.2-0.5,0.7-1,1.3-1.5c0.7-0.5,1.5-0.7,2.4-0.7c1.3,0,2.4,0.5,3.4,1.5
		c0.9,1,1.4,2.2,1.4,3.7c0,1.5-0.5,2.7-1.4,3.7c-0.9,1-2.1,1.5-3.4,1.5c-0.9,0-1.7-0.2-2.4-0.7c-0.7-0.5-1.1-1-1.3-1.5h0v5.8H435.3z
		 M437.5,9.9c-0.7,0.8-1.1,1.7-1.1,2.9c0,1.2,0.4,2.1,1.1,2.9c0.7,0.8,1.6,1.2,2.6,1.2c1,0,1.9-0.4,2.6-1.2c0.7-0.8,1.1-1.7,1.1-2.9
		c0-1.2-0.4-2.1-1.1-2.9c-0.7-0.8-1.6-1.2-2.6-1.2C439.1,8.8,438.3,9.1,437.5,9.9z"/>
	<path fill="#181818" d="M447.5,21.5V7.9h1.2v2h0c0.2-0.5,0.7-1,1.3-1.5c0.7-0.5,1.5-0.7,2.4-0.7c1.3,0,2.4,0.5,3.4,1.5
		c0.9,1,1.4,2.2,1.4,3.7c0,1.5-0.5,2.7-1.4,3.7c-0.9,1-2.1,1.5-3.4,1.5c-0.9,0-1.7-0.2-2.4-0.7c-0.7-0.5-1.1-1-1.3-1.5h0v5.8H447.5z
		 M449.7,9.9c-0.7,0.8-1.1,1.7-1.1,2.9c0,1.2,0.4,2.1,1.1,2.9c0.7,0.8,1.6,1.2,2.6,1.2c1,0,1.9-0.4,2.6-1.2c0.7-0.8,1.1-1.7,1.1-2.9
		c0-1.2-0.4-2.1-1.1-2.9c-0.7-0.8-1.6-1.2-2.6-1.2C451.3,8.8,450.5,9.1,449.7,9.9z"/>
	<path fill="#181818" d="M459.7,17.8V3.9h1.2v12.8h2.3v1.1H459.7z"/>
	<path fill="#181818" d="M465,5.5c-0.2-0.2-0.3-0.4-0.3-0.6c0-0.3,0.1-0.5,0.3-0.6c0.2-0.2,0.4-0.3,0.6-0.3c0.3,0,0.5,0.1,0.6,0.3
		s0.3,0.4,0.3,0.6c0,0.3-0.1,0.5-0.3,0.6c-0.2,0.2-0.4,0.3-0.6,0.3C465.4,5.8,465.1,5.7,465,5.5z M465,17.8V7.9h1.2v9.9H465z"/>
	<path fill="#181818" d="M470.1,16.5c-1-1-1.4-2.2-1.4-3.7c0-1.5,0.5-2.7,1.4-3.7c1-1,2.1-1.5,3.5-1.5c1.4,0,2.6,0.5,3.5,1.5
		s1.4,2.2,1.4,3.6v0.5h-8.7c0.1,1,0.4,1.9,1.2,2.6c0.7,0.7,1.6,1.1,2.6,1.1c1.1,0,2.1-0.4,2.8-1.1c0.3-0.3,0.6-0.7,0.8-1.1h1.2
		c-0.2,0.6-0.6,1.2-1,1.6c-1,1.1-2.2,1.6-3.8,1.6C472.2,18,471.1,17.5,470.1,16.5z M469.9,12.1h7.4c-0.1-1-0.5-1.8-1.2-2.4
		c-0.7-0.6-1.5-1-2.5-1s-1.8,0.3-2.5,1C470.5,10.3,470,11.1,469.9,12.1z"/>
	<path fill="#181818" d="M481.1,17.8V7.9h1.2v1.9h0c0.2-0.4,0.4-0.7,0.7-1c0.7-0.7,1.5-1,2.6-1h1.1v1.1h-1.1c-1,0-1.7,0.3-2.4,1
		s-0.9,1.5-0.9,2.5v5.5H481.1z"/>
	<path fill="#181818" d="M266.4,45.7c-1-1-1.4-2.2-1.4-3.7c0-1.5,0.5-2.7,1.4-3.7c1-1,2.2-1.5,3.6-1.5c1.4,0,2.6,0.5,3.6,1.5
		c1,1,1.4,2.2,1.4,3.7c0,1.5-0.5,2.7-1.4,3.7c-1,1-2.2,1.5-3.6,1.5C268.6,47.2,267.4,46.7,266.4,45.7z M267.2,39.1
		c-0.7,0.8-1.1,1.7-1.1,2.9c0,1.2,0.4,2.1,1.1,2.9c0.7,0.8,1.7,1.2,2.8,1.2c1.1,0,2-0.4,2.8-1.2c0.7-0.8,1.1-1.7,1.1-2.9
		c0-1.2-0.4-2.1-1.1-2.9c-0.7-0.8-1.7-1.2-2.8-1.2C268.9,37.9,268,38.3,267.2,39.1z"/>
	<path fill="#181818" d="M276.4,38.1V37h1.4v-4h4.5v1.1H279V37h2.7v1.1H279V47h-1.2v-8.8H276.4z"/>
	<path fill="#181818" d="M289.1,41.8v-8.7h1.3v8.7c0,1.4,0.4,2.5,1.1,3.2c0.7,0.8,1.7,1.1,3,1.1c1.3,0,2.2-0.4,3-1.1
		c0.7-0.8,1.1-1.8,1.1-3.2v-8.7h1.3v8.7c0,1.7-0.5,3-1.5,4c-1,1-2.3,1.5-3.9,1.5c-1.6,0-2.9-0.5-3.9-1.5S289.1,43.5,289.1,41.8z"/>
	<path fill="#181818" d="M302.4,43.3h1.3c0.2,0.6,0.5,1,0.8,1.4c0.8,1,2,1.4,3.4,1.4c1.2,0,2.2-0.3,2.9-0.8s1-1.2,1-2
		c0-0.2,0-0.4-0.1-0.6c0-0.2-0.1-0.3-0.2-0.5c-0.1-0.2-0.2-0.3-0.3-0.4c-0.1-0.1-0.3-0.2-0.5-0.4c-0.2-0.1-0.4-0.2-0.5-0.3
		c-0.1-0.1-0.3-0.2-0.6-0.3c-0.3-0.1-0.5-0.2-0.7-0.2c-0.1,0-0.4-0.1-0.7-0.2c-0.4-0.1-0.6-0.2-0.7-0.2c-0.5-0.1-1-0.3-1.3-0.4
		c-0.4-0.1-0.7-0.3-1.2-0.5c-0.4-0.2-0.8-0.5-1-0.7c-0.3-0.3-0.5-0.6-0.6-1s-0.3-0.8-0.3-1.3c0-1,0.4-1.9,1.3-2.7
		c0.9-0.7,2-1.1,3.5-1.1c1.9,0,3.3,0.6,4.3,1.8c0.4,0.5,0.7,1.1,0.9,1.8h-1.3c-0.1-0.5-0.4-0.9-0.7-1.2c-0.8-0.8-1.9-1.2-3.3-1.2
		c-1.1,0-2,0.2-2.6,0.7c-0.6,0.5-0.9,1.1-0.9,1.8c0,0.9,0.6,1.6,1.8,2.2c0.4,0.2,1.3,0.5,2.6,0.9c0.5,0.2,1,0.3,1.3,0.4
		c0.3,0.1,0.7,0.3,1.2,0.5c0.4,0.2,0.8,0.5,1,0.7c0.2,0.3,0.5,0.6,0.6,1s0.3,0.8,0.3,1.3c0,1.1-0.5,2-1.4,2.8s-2.2,1.2-3.8,1.2
		c-2,0-3.5-0.7-4.6-2C303,44.7,302.6,44,302.4,43.3z"/>
	<path fill="#181818" d="M320.6,43.3h1.3c0.2,0.6,0.5,1,0.8,1.4c0.8,1,2,1.4,3.4,1.4c1.2,0,2.2-0.3,2.9-0.8s1-1.2,1-2
		c0-0.2,0-0.4-0.1-0.6c0-0.2-0.1-0.3-0.2-0.5c-0.1-0.2-0.2-0.3-0.3-0.4c-0.1-0.1-0.3-0.2-0.5-0.4c-0.2-0.1-0.4-0.2-0.5-0.3
		c-0.1-0.1-0.3-0.2-0.6-0.3c-0.3-0.1-0.5-0.2-0.7-0.2c-0.1,0-0.4-0.1-0.7-0.2c-0.4-0.1-0.6-0.2-0.7-0.2c-0.5-0.1-1-0.3-1.3-0.4
		c-0.4-0.1-0.7-0.3-1.2-0.5c-0.4-0.2-0.8-0.5-1-0.7c-0.3-0.3-0.5-0.6-0.6-1s-0.3-0.8-0.3-1.3c0-1,0.4-1.9,1.3-2.7
		c0.9-0.7,2-1.1,3.5-1.1c1.9,0,3.3,0.6,4.3,1.8c0.4,0.5,0.7,1.1,0.9,1.8h-1.3c-0.1-0.5-0.4-0.9-0.7-1.2c-0.8-0.8-1.9-1.2-3.3-1.2
		c-1.1,0-2,0.2-2.6,0.7c-0.6,0.5-0.9,1.1-0.9,1.8c0,0.9,0.6,1.6,1.8,2.2c0.4,0.2,1.3,0.5,2.6,0.9c0.5,0.2,1,0.3,1.3,0.4
		c0.3,0.1,0.7,0.3,1.2,0.5c0.4,0.2,0.8,0.5,1,0.7c0.2,0.3,0.5,0.6,0.6,1s0.3,0.8,0.3,1.3c0,1.1-0.5,2-1.4,2.8s-2.2,1.2-3.8,1.2
		c-2,0-3.5-0.7-4.6-2C321.1,44.7,320.8,44,320.6,43.3z"/>
	<path fill="#181818" d="M333.9,47V33.1h1.2v8.1h2.4l3.3-4.2h1.4l-3.7,4.8l4,5.2H341l-3.6-4.7h-2.4V47H333.9z"/>
	<path fill="#181818" d="M344.1,34.7c-0.2-0.2-0.3-0.4-0.3-0.6c0-0.3,0.1-0.5,0.3-0.6c0.2-0.2,0.4-0.3,0.6-0.3
		c0.3,0,0.5,0.1,0.6,0.3s0.3,0.4,0.3,0.6c0,0.3-0.1,0.5-0.3,0.6s-0.4,0.3-0.6,0.3C344.4,35,344.2,34.9,344.1,34.7z M344.1,47V37h1.2
		V47H344.1z"/>
	<path fill="#181818" d="M352.5,47l5.5-13.9h1.3L353.8,47H352.5z"/>
	<path fill="#181818" d="M365.8,43.3h1.3c0.2,0.6,0.5,1,0.8,1.4c0.8,1,2,1.4,3.4,1.4c1.2,0,2.2-0.3,2.9-0.8s1-1.2,1-2
		c0-0.2,0-0.4-0.1-0.6c0-0.2-0.1-0.3-0.2-0.5c-0.1-0.2-0.2-0.3-0.3-0.4c-0.1-0.1-0.3-0.2-0.5-0.4c-0.2-0.1-0.4-0.2-0.5-0.3
		c-0.1-0.1-0.3-0.2-0.6-0.3c-0.3-0.1-0.5-0.2-0.7-0.2c-0.1,0-0.4-0.1-0.7-0.2c-0.4-0.1-0.6-0.2-0.7-0.2c-0.5-0.1-1-0.3-1.3-0.4
		c-0.4-0.1-0.7-0.3-1.2-0.5c-0.4-0.2-0.8-0.5-1-0.7c-0.3-0.3-0.5-0.6-0.6-1s-0.3-0.8-0.3-1.3c0-1,0.4-1.9,1.3-2.7
		c0.9-0.7,2-1.1,3.5-1.1c1.9,0,3.3,0.6,4.3,1.8c0.4,0.5,0.7,1.1,0.9,1.8h-1.3c-0.1-0.5-0.4-0.9-0.7-1.2c-0.8-0.8-1.9-1.2-3.3-1.2
		c-1.1,0-2,0.2-2.6,0.7c-0.6,0.5-0.9,1.1-0.9,1.8c0,0.9,0.6,1.6,1.8,2.2c0.4,0.2,1.3,0.5,2.6,0.9c0.5,0.2,1,0.3,1.3,0.4
		c0.3,0.1,0.7,0.3,1.2,0.5c0.4,0.2,0.8,0.5,1,0.7c0.2,0.3,0.5,0.6,0.6,1s0.3,0.8,0.3,1.3c0,1.1-0.5,2-1.4,2.8s-2.2,1.2-3.8,1.2
		c-2,0-3.5-0.7-4.6-2C366.3,44.7,366,44,365.8,43.3z"/>
	<path fill="#181818" d="M379.1,47V37h1.2v1.7h0c0.2-0.5,0.7-0.9,1.3-1.3c0.6-0.4,1.4-0.6,2.3-0.6c1.1,0,2,0.4,2.7,1.2
		c0.7,0.8,1.1,1.8,1.1,3.1V47h-1.2v-5.9c0-1-0.2-1.8-0.7-2.4s-1.2-0.8-2-0.8c-1,0-1.8,0.3-2.4,1c-0.6,0.7-1,1.5-1,2.6V47H379.1z"/>
	<path fill="#181818" d="M391.4,45.7c-1-1-1.4-2.2-1.4-3.7c0-1.5,0.5-2.7,1.4-3.7c1-1,2.2-1.5,3.6-1.5c1.4,0,2.6,0.5,3.6,1.5
		c1,1,1.4,2.2,1.4,3.7c0,1.5-0.5,2.7-1.4,3.7c-1,1-2.2,1.5-3.6,1.5C393.5,47.2,392.3,46.7,391.4,45.7z M392.2,39.1
		c-0.7,0.8-1.1,1.7-1.1,2.9c0,1.2,0.4,2.1,1.1,2.9c0.7,0.8,1.7,1.2,2.8,1.2c1.1,0,2-0.4,2.8-1.2c0.7-0.8,1.1-1.7,1.1-2.9
		c0-1.2-0.4-2.1-1.1-2.9c-0.7-0.8-1.7-1.2-2.8-1.2C393.9,37.9,393,38.3,392.2,39.1z"/>
	<path fill="#181818" d="M401.6,37h1.3l1.9,8.8h0.7l1.8-8.8h2.6l1.8,8.8h0.7l1.9-8.8h1.3l-2.2,9.9h-2.7l-1.8-8.8h-0.6l-1.8,8.8h-2.7
		L401.6,37z"/>
	<path fill="#181818" d="M417.8,47V33.1h1.2v6h0c0.2-0.5,0.7-1,1.3-1.5c0.7-0.5,1.5-0.7,2.4-0.7c1.3,0,2.4,0.5,3.4,1.5
		c0.9,1,1.4,2.2,1.4,3.7c0,1.5-0.5,2.7-1.4,3.7c-0.9,1-2.1,1.5-3.4,1.5c-0.9,0-1.7-0.2-2.4-0.7c-0.7-0.5-1.1-1-1.3-1.5h0v2H417.8z
		 M420.1,39.1c-0.7,0.8-1.1,1.7-1.1,2.9c0,1.2,0.4,2.1,1.1,2.9c0.7,0.8,1.6,1.2,2.6,1.2c1,0,1.9-0.4,2.6-1.2
		c0.7-0.8,1.1-1.7,1.1-2.9c0-1.2-0.4-2.1-1.1-2.9c-0.7-0.8-1.6-1.2-2.6-1.2C421.7,37.9,420.8,38.3,420.1,39.1z"/>
	<path fill="#181818" d="M430.8,45.7c-1-1-1.4-2.2-1.4-3.7c0-1.5,0.5-2.7,1.4-3.7c1-1,2.2-1.5,3.6-1.5c1.4,0,2.6,0.5,3.6,1.5
		c1,1,1.4,2.2,1.4,3.7c0,1.5-0.5,2.7-1.4,3.7c-1,1-2.2,1.5-3.6,1.5C432.9,47.2,431.7,46.7,430.8,45.7z M431.6,39.1
		c-0.7,0.8-1.1,1.7-1.1,2.9c0,1.2,0.4,2.1,1.1,2.9c0.7,0.8,1.7,1.2,2.8,1.2c1.1,0,2-0.4,2.8-1.2c0.7-0.8,1.1-1.7,1.1-2.9
		c0-1.2-0.4-2.1-1.1-2.9c-0.7-0.8-1.7-1.2-2.8-1.2C433.3,37.9,432.3,38.3,431.6,39.1z"/>
	<path fill="#181818" d="M442.6,45.7c-0.9-1-1.4-2.2-1.4-3.7c0-1.5,0.5-2.7,1.4-3.7s2-1.5,3.4-1.5c0.9,0,1.7,0.2,2.4,0.7
		c0.6,0.5,1.1,1,1.4,1.5h0v-2h1.2V47h-1.2v-2h0c-0.3,0.5-0.7,1-1.4,1.5c-0.6,0.5-1.4,0.7-2.4,0.7C444.6,47.2,443.5,46.7,442.6,45.7z
		 M443.5,39.1c-0.7,0.8-1.1,1.7-1.1,2.9c0,1.2,0.4,2.1,1.1,2.9c0.7,0.8,1.6,1.2,2.6,1.2c1,0,1.8-0.4,2.6-1.2
		c0.7-0.8,1.1-1.7,1.1-2.9c0-1.2-0.4-2.1-1.1-2.9c-0.7-0.8-1.6-1.2-2.6-1.2C445.1,37.9,444.2,38.3,443.5,39.1z"/>
	<path fill="#181818" d="M454.1,47V37h1.2v1.9h0c0.2-0.4,0.4-0.7,0.7-1c0.7-0.7,1.5-1,2.6-1h1.1V38h-1.1c-1,0-1.7,0.3-2.4,1
		c-0.6,0.6-0.9,1.5-0.9,2.5V47H454.1z"/>
	<path fill="#181818" d="M462.1,45.7c-0.9-1-1.4-2.2-1.4-3.7c0-1.5,0.5-2.7,1.4-3.7s2-1.5,3.4-1.5c0.9,0,1.7,0.2,2.4,0.7
		c0.6,0.5,1.1,1,1.4,1.5h0v-6h1.2V47h-1.2v-2h0c-0.3,0.5-0.7,1-1.4,1.5c-0.6,0.5-1.4,0.7-2.4,0.7C464.2,47.2,463.1,46.7,462.1,45.7z
		 M463,39.1c-0.7,0.8-1.1,1.7-1.1,2.9c0,1.2,0.4,2.1,1.1,2.9c0.7,0.8,1.6,1.2,2.6,1.2c1,0,1.8-0.4,2.6-1.2c0.7-0.8,1.1-1.7,1.1-2.9
		c0-1.2-0.4-2.1-1.1-2.9c-0.7-0.8-1.6-1.2-2.6-1.2C464.6,37.9,463.7,38.3,463,39.1z"/>
	<path fill="#181818" d="M478.1,38.1V37h1.4v-2.2h1.2V37h3.3v1.1h-3.3v7.7h3.4V47h-4.6v-8.8H478.1z"/>
	<path fill="#181818" d="M487,45.7c-1-1-1.4-2.2-1.4-3.7c0-1.5,0.5-2.7,1.4-3.7c1-1,2.1-1.5,3.5-1.5c1.4,0,2.6,0.5,3.5,1.5
		c1,1,1.4,2.2,1.4,3.6v0.5h-8.7c0.1,1,0.4,1.9,1.2,2.6c0.7,0.7,1.6,1.1,2.6,1.1c1.1,0,2.1-0.4,2.8-1.1c0.3-0.3,0.6-0.7,0.8-1.1h1.2
		c-0.2,0.6-0.6,1.2-1,1.6c-1,1.1-2.2,1.6-3.8,1.6C489.1,47.2,487.9,46.7,487,45.7z M486.7,41.3h7.4c-0.1-1-0.5-1.8-1.2-2.4
		c-0.7-0.6-1.5-1-2.5-1s-1.8,0.3-2.5,1S486.9,40.3,486.7,41.3z"/>
	<path fill="#181818" d="M498.6,45.7c-0.9-1-1.4-2.2-1.4-3.7c0-1.5,0.5-2.7,1.4-3.7s2-1.5,3.4-1.5c0.9,0,1.7,0.2,2.4,0.7
		c0.6,0.5,1.1,1,1.4,1.5h0v-2h1.2V47h-1.2v-2h0c-0.3,0.5-0.7,1-1.4,1.5c-0.6,0.5-1.4,0.7-2.4,0.7C500.7,47.2,499.6,46.7,498.6,45.7z
		 M499.5,39.1c-0.7,0.8-1.1,1.7-1.1,2.9c0,1.2,0.4,2.1,1.1,2.9c0.7,0.8,1.6,1.2,2.6,1.2c1,0,1.8-0.4,2.6-1.2
		c0.7-0.8,1.1-1.7,1.1-2.9c0-1.2-0.4-2.1-1.1-2.9c-0.7-0.8-1.6-1.2-2.6-1.2C501.1,37.9,500.2,38.3,499.5,39.1z"/>
	<path fill="#181818" d="M510.1,47V37h1.2v1.7h0c0.2-0.4,0.5-0.7,0.8-0.9c0.7-0.6,1.6-1,2.6-1c1,0,1.8,0.4,2.5,1.1
		c0.3,0.3,0.5,0.7,0.7,1.1h0.1c0.2-0.4,0.4-0.7,0.8-1.1c0.8-0.7,1.7-1.1,2.9-1.1c1,0,1.9,0.4,2.5,1.2c0.7,0.8,1,1.8,1,3.1V47H524
		v-5.9c0-1-0.2-1.8-0.7-2.4c-0.5-0.5-1.1-0.8-1.9-0.8c-0.8,0-1.6,0.3-2.2,1c-0.6,0.6-1,1.4-1,2.3V47h-1.2v-5.9c0-1-0.2-1.8-0.7-2.4
		s-1.1-0.8-1.9-0.8c-0.8,0-1.6,0.3-2.2,1s-1,1.4-1,2.3V47H510.1z"/>
</g>
</svg>
