<?xml version="1.0" encoding="utf-8"?>
<!-- Generator: Adobe Illustrator 26.0.2, SVG Export Plug-In . SVG Version: 6.00 Build 0)  -->
<svg version="1.0" id="Layer_1" xmlns="http://www.w3.org/2000/svg" xmlns:xlink="http://www.w3.org/1999/xlink" x="0px" y="0px"
	 viewBox="0 0 226.7 51.6" style="enable-background:new 0 0 226.7 51.6;" xml:space="preserve">
<style type="text/css">
	.st0{fill:#181818;}
</style>
<path class="st0" d="M56.5,40.9C41.6,29.9,27,18.9,12,7.7c0,13.1,0,26,0,38.9c-2.5,0-4.9,0-7.3,0c0-14,0-28,0-42.2
	c0.4,0,0.8,0,1.1,0c4.3,0,8.6,0,12.9,0c0.9,0,1.6,0.2,2.3,0.8c9,6.9,18.1,13.9,27.1,20.8c0.3,0.2,0.6,0.4,1.1,0.8
	c0-7.5,0-14.9,0-22.3c2.5,0,4.9,0,7.3,0C56.5,16.6,56.5,28.6,56.5,40.9z"/>
<path class="st0" d="M20.8,25.7c0,7.1,0,13.9,0,20.8c-2.4,0-4.8,0-7.3,0c0-11.9,0-23.8,0-35.9C28.4,21.7,43.1,32.7,58,43.9
	c0-13.3,0-26.3,0-39.4c2.5,0,4.8,0,7.3,0c0,14,0,28,0,42.1c-0.3,0-0.6,0.1-0.9,0.1c-4.7,0-9.5,0-14.2,0c-0.6,0-1.2-0.2-1.7-0.6
	c-8.9-6.5-17.8-13.1-26.7-19.7C21.5,26.2,21.2,26,20.8,25.7z"/>
<path class="st0" d="M153.8,30.3c2.2,0,4.4,0,6.7,0c0,3-0.7,5.8-2.4,8.3c-2.1,3.1-5.2,5-8.7,6.2c-3.7,1.3-7.5,2-11.4,2.3
	c-7.2,0.5-14.4,0.4-21.6-1.2c-2.9-0.7-5.6-1.6-8.2-3.2c-3.8-2.2-6.4-5.4-7.7-9.6c-1.6-5-1.7-10.1-0.1-15.1c2-5.9,6.3-9.6,12-12
	C118.1,3.8,124,3.1,130,3c6.9-0.1,13.6,0.7,20,3.5c3.5,1.5,6.6,3.6,8.6,7.1c1,1.8,1.6,3.8,1.5,6c-2.4,0-4.6,0-7,0
	c-0.3-4.1-2.5-6.9-5.9-8.8c-1.2-0.7-2.5-1.3-3.9-1.7c-8-2.3-16.1-2.5-24.1-0.3c-8.3,2.3-12.3,8-12.2,16.7c0.1,3.4,0.6,6.6,2.4,9.6
	c2.2,3.6,5.6,5.7,9.6,6.7c8.7,2.1,17.3,2.3,25.9-0.5c3.7-1.2,6.7-3.4,8.1-7.3C153.4,32.7,153.5,31.5,153.8,30.3z"/>
<path class="st0" d="M151.6,19.6c-2.7,0-5.3,0-8,0c-0.9-3.6-3.7-5-7-5.6c-4.4-0.8-8.8-0.7-13.2,0.6c-5,1.6-7.7,5.3-7.5,10.5
	c0,1.2,0.2,2.5,0.5,3.6c1.1,4.4,4.3,6.4,8.5,7.3c4.4,0.9,8.8,0.8,13.2-0.2c0.9-0.2,1.8-0.6,2.6-1c1.7-0.9,3-2.1,3.5-4.1
	c0.1-0.2,0.4-0.6,0.7-0.6c2.4,0,4.7,0,7.2,0c0.1,2.2-0.6,4.1-1.9,5.8c-2,2.5-4.8,3.7-7.8,4.5c-7.7,1.8-15.4,1.8-23-0.2
	c-5-1.3-8.8-4.2-10.2-9.5c-0.9-3.6-1-7.2-0.1-10.7c1.2-4.9,4.5-8,9.2-9.4c8.9-2.7,17.8-2.5,26.5,0.6c1.9,0.7,3.6,1.9,4.9,3.5
	C151,16,151.6,17.6,151.6,19.6z"/>
<path class="st0" d="M221.9,41.6c0,1.6,0,3.1,0,4.7c-16,0-32,0-48.2,0c0-5.3,0-10.6,0-16c-3.4,0-6.7,0-10.3,0
	c0.8-1.5,1.4-2.9,2.1-4.3c0.1-0.1,0.4-0.2,0.7-0.2c5.1,0,10.2,0,15.3,0c0.1,0,0.3,0.1,0.6,0.1c0,5.2,0,10.4,0,15.7
	C195.4,41.6,208.5,41.6,221.9,41.6z"/>
<path class="st0" d="M182.1,8.9c0,2.5,0,4.7,0,7c0,2.5,0,5.1,0,7.6c0,0.6-0.1,0.9-0.8,0.9c-4.8,0-9.6,0-14.4,0c-0.1,0-0.2,0-0.5-0.1
	c0.7-1.5,1.4-2.9,2.2-4.4c0.1-0.2,0.6-0.3,0.9-0.3c1.4,0,2.7,0,4.2,0c0-5.2,0-10.3,0-15.4c16.1,0,32.1,0,48.2,0c0,1.6,0,3.1,0,4.7
	C208.6,8.9,195.4,8.9,182.1,8.9z"/>
<path class="st0" d="M189.9,14.8c0,1.7,0,3.2,0,4.8c6.3,0,12.5,0,18.8,0c0,1.6,0,3.1,0,4.7c-8.3,0-16.7,0-25.1,0c0-4.6,0-9.2,0-13.9
	c12.7,0,25.4,0,38.2,0c0,1.4,0,2.8,0,4.3C211.2,14.8,200.6,14.8,189.9,14.8z"/>
<path class="st0" d="M208.7,25.9c0,1.4,0,2.8,0,4.3c-6.3,0-12.5,0-18.8,0c0,1.9,0,3.5,0,5.4c10.6,0,21.2,0,31.9,0c0,1.6,0,3,0,4.5
	c-12.7,0-25.5,0-38.3,0c0-4.8,0-9.4,0-14.2C192,25.9,200.3,25.9,208.7,25.9z"/>
<path class="st0" d="M75.1,46.4c0-14.2,0-28.1,0-42.2c2.4,0,4.8,0,7.3,0c0,0.4,0.1,0.7,0.1,1.1c0,13.3,0,26.6,0,39.9
	c0,1-0.3,1.3-1.3,1.2C79.2,46.3,77.2,46.4,75.1,46.4z"/>
<path class="st0" d="M91.2,46.3c-2.4,0-4.8,0-7.2,0c0-14.1,0-28,0-42.1c2.4,0,4.8,0,7.2,0C91.2,18.2,91.2,32.2,91.2,46.3z"/>
</svg>
